<svg xmlns="http://www.w3.org/2000/svg" viewBox="0 0 32 32"><defs><style>.cls-1{fill:none;stroke:#003383;stroke-miterlimit:10;stroke-width:2px;}.cls-2{fill:#003383;}</style></defs><g id="Layer_2" data-name="Layer 2"><g id="Layer_1-2" data-name="Layer 1"><path class="cls-1" d="M16,1h1l.93,0,.44,0,.87.05.83.07c7,.68,10,3.5,10.75,10.36l0,.44.07.83L31,13.89v.22L31,15V17l0,.93,0,.45-.05.86-.07.83c-.69,7-3.5,10-10.36,10.75l-.44,0-.83.07L18.11,31h-.22L17,31H15l-.93,0-.45,0-.86-.05L12,30.83c-7-.68-10-3.5-10.75-10.36L1.17,20,1.1,19.2,1,18.11v-.22L1,17V15l0-.93,0-.45.05-.86L1.17,12c.68-7,3.5-10,10.36-10.75L12,1.17l.83-.07L13.89,1h.22L15,1Z"/><path class="cls-2" d="M16,14.5H14.32a1.5,1.5,0,0,0,0,3h.18v4.68a1.5,1.5,0,0,0,1.31,1.31h1.85A1.51,1.51,0,0,0,19,22.18v-.36a1.49,1.49,0,0,0-1.15-1.28l-.17,0H17.5V15.82a1.51,1.51,0,0,0-1.32-1.31Z"/><path class="cls-2" d="M16,10h-.19a1.5,1.5,0,0,0,0,3h.37a1.5,1.5,0,0,0,0-3Z"/></g></g></svg>